<svg xmlns="http://www.w3.org/2000/svg" xmlns:xlink="http://www.w3.org/1999/xlink" viewBox="0 0 1600 1262" width="1600" height="1262" font-family="Helvetica, Arial, sans-serif">
<rect width="100%" height="100%" fill="#FFFFFF"/>
<title>Fig 6 — Restock hatch latch (spring bolt + servo cam)</title>
<desc>Four side sections of the spring-bolt latch on the one-column restock hatch in the top cover: locked/rest, servo unlock, self-latching close and key override, plus a state strip, a top-view inset and a legend.</desc>
<defs>
<marker id="ahB" viewBox="0 0 10 10" refX="5" refY="5" markerWidth="4" markerHeight="4" orient="auto" markerUnits="strokeWidth"><path d="M0,0 L10,5 L0,10 z" fill="#1D4ED8"/></marker>
<marker id="ahR" viewBox="0 0 10 10" refX="5" refY="5" markerWidth="4" markerHeight="4" orient="auto" markerUnits="strokeWidth"><path d="M0,0 L10,5 L0,10 z" fill="#DC2626"/></marker>
<marker id="ahG" viewBox="0 0 10 10" refX="5" refY="5" markerWidth="4" markerHeight="4" orient="auto" markerUnits="strokeWidth"><path d="M0,0 L10,5 L0,10 z" fill="#4B5563"/></marker>
<clipPath id="vp"><rect x="-42" y="-32" width="86" height="63"/></clipPath>
<g id="frame">
<polygon points="-30,-22 40,-22 40,16 0,16 0,0 -30,0" fill="#E5E7EB"/>
<polygon points="0,1.6 9.5,1.6 9.5,0 1.5,0 1.5,-19.5 38.5,-19.5 38.5,0 25,0 25,1.6 34,1.6 34,8.4 16.2,8.4 16.2,16 12.8,16 12.8,8.4 0,8.4" fill="#FFFFFF"/>
<rect x="-25" y="-12" width="21" height="12" fill="#FFFFFF"/>
<path d="M0,1.6 L0,0 L-4,0 M-25,0 L-30,0 L-30,-22 L40,-22 L40,16 L16.2,16 M12.8,16 L0,16 L0,8.4" fill="none" stroke="#374151" stroke-width="0.35" stroke-linejoin="round"/>
<path d="M0,1.6 L9.5,1.6 L9.5,0 L1.5,0 L1.5,-19.5 L38.5,-19.5 L38.5,0 L25,0 L25,1.6 L34,1.6 L34,8.4 L16.2,8.4 L16.2,16 M12.8,16 L12.8,8.4 L0,8.4" fill="none" stroke="#374151" stroke-width="0.35" stroke-linejoin="round"/>
<path d="M-4,0 L-4,-12 L-25,-12 L-25,0" fill="none" stroke="#374151" stroke-width="0.35" stroke-linejoin="round"/>
</g>
<g id="servo">
<rect x="4.5" y="-16.2" width="32" height="10.4" rx="0.6" fill="#FDE68A" stroke="#B45309" stroke-width="0.3"/>
<rect x="9" y="-17.25" width="23" height="12.5" rx="0.8" fill="#FDE68A" stroke="#B45309" stroke-width="0.35"/>
<circle cx="6.6" cy="-11" r="0.9" fill="#FFFFFF" stroke="#B45309" stroke-width="0.25"/>
<circle cx="34.4" cy="-11" r="0.9" fill="#FFFFFF" stroke="#B45309" stroke-width="0.25"/>
<circle cx="15" cy="-11" r="3.4" fill="#FDE68A" stroke="#B45309" stroke-width="0.3"/>
</g>
<g id="cam"><path d="M0,-4 A4,4 0 0,0 0,4 L10.4,1.6 A1.6,1.6 0 0,0 10.4,-1.6 Z" fill="#FDE68A" stroke="#B45309" stroke-width="0.4" stroke-linejoin="round"/><circle r="1.1" fill="#B45309"/></g>
<g id="camghost"><path d="M0,-4 A4,4 0 0,0 0,4 L10.4,1.6 A1.6,1.6 0 0,0 10.4,-1.6 Z" fill="none" stroke="#B45309" stroke-width="0.3" stroke-dasharray="0.8,0.6" opacity="0.8"/></g>
<g id="bolt"><polygon points="-6,2 13,2 13,-3 16,-3 16,2 20,2 20,8 16,8 5,4 5,8 -0.6,8 -6,2.6" fill="#BFDBFE" stroke="#1D4ED8" stroke-width="0.35" stroke-linejoin="round"/></g>
<g id="lid"><polygon points="-95,0 -1,0 -1,1.6 -8,1.6 -8,8.4 -1,8.4 -1,10 -95,10" fill="#BFDBFE" stroke="#1D4ED8" stroke-width="0.35" stroke-linejoin="round"/></g>
<g id="lidghost"><polygon points="-95,0 -1,0 -1,1.6 -8,1.6 -8,8.4 -1,8.4 -1,10 -95,10" fill="none" stroke="#1D4ED8" stroke-width="0.3" stroke-dasharray="0.8,0.6" opacity="0.6"/></g>
<g id="swbody"><rect x="-24.5" y="-11" width="19" height="6.8" rx="0.5" fill="#BBF7D0" stroke="#15803D" stroke-width="0.35"/><rect x="-12.5" y="-4.2" width="2" height="2.3" fill="#BBF7D0" stroke="#15803D" stroke-width="0.25"/><rect x="-22.5" y="-12" width="1.2" height="1" fill="#15803D"/><rect x="-15.6" y="-12" width="1.2" height="1" fill="#15803D"/><rect x="-8.7" y="-12" width="1.2" height="1" fill="#15803D"/><path d="M-24.2,-4.2 L-23.5,-3.2 L-22.6,-4.2" fill="none" stroke="#15803D" stroke-width="0.3"/></g>
<g id="lever"><line x1="0" y1="0" x2="17.5" y2="0" stroke="#15803D" stroke-width="1" stroke-linecap="round"/><circle r="0.6" fill="#FFFFFF" stroke="#15803D" stroke-width="0.25"/></g>
<g id="key"><polygon points="13,4 16,5.09 16,22 13,22" fill="#E5E7EB" stroke="#DC2626" stroke-width="0.4" stroke-linejoin="round"/><rect x="9.5" y="22" width="10" height="5.2" rx="1.4" fill="#E5E7EB" stroke="#DC2626" stroke-width="0.4"/><circle cx="14.5" cy="24.6" r="1.2" fill="#FFFFFF" stroke="#DC2626" stroke-width="0.3"/></g>
</defs>
<text x="40" y="48" font-size="24" fill="#111827" font-weight="bold">Fig 6 — Restock hatch latch (spring bolt + servo cam)</text>
<text x="40" y="74" font-size="14" fill="#4B5563">Side section through the latch edge of the ONE restock hatch in the fixed top cover: outside of the safe is up, inside is down. Same parts in every panel — only positions change.</text>
<text x="1560" y="1248" font-size="11" fill="#9CA3AF" text-anchor="end">Smart Med Station · Hardware design v2.1 · 2026-10-07</text>
<rect x="40" y="100" width="748" height="440" rx="10" fill="#FFFFFF" stroke="#D1D5DB" stroke-width="1"/>
<text x="58" y="128" font-size="13" fill="#374151" font-weight="bold" letter-spacing="0.6">1 · LOCKED / REST</text>
<text x="770" y="128" font-size="12" fill="#4B5563" text-anchor="end">outside ↑ · inside ↓</text>
<g transform="translate(270,300) scale(5,-5)">
<g clip-path="url(#vp)">
<use xlink:href="#lid" transform="rotate(0 -45 10)"/>
<use xlink:href="#frame"/>
<use xlink:href="#servo"/>
<use xlink:href="#bolt" transform="translate(0,0)"/>
<path d="M20,5 L20.8,5 L21.32,7 L22.35,3 L23.38,7 L24.42,3 L25.45,7 L26.48,3 L27.52,7 L28.55,3 L29.58,7 L30.62,3 L31.65,7 L32.68,3 L33.2,5 L34,5" fill="none" stroke="#B45309" stroke-width="0.45" stroke-linejoin="round"/>
<use xlink:href="#cam" transform="translate(15,-11) rotate(180)"/>
<use xlink:href="#swbody"/>
<use xlink:href="#lever" transform="translate(-23.5,-3.2) rotate(8.88)"/>
<polyline points="7.2,5 0.2,5" fill="none" stroke="#DC2626" stroke-width="0.5" stroke-linecap="round" marker-end="url(#ahR)"/>
</g></g>
<text x="0" y="0" font-size="12" fill="#1E3A8A" transform="translate(70,283.5) rotate(0)">HATCH LID · hinge ←</text>
<text x="60" y="150" font-size="14" fill="#1F2937">45° bevel on bolt tip</text>
<text x="60" y="166" font-size="12" fill="#4B5563">faces the closing lid</text>
<polyline points="220,154.5 253.5,270" fill="none" stroke="#6B7280" stroke-width="0.9"/>
<circle cx="253.5" cy="270" r="2.2" fill="#6B7280"/>
<text x="60" y="197.5" font-size="14" fill="#1F2937">strike slot in lid edge</text>
<polyline points="207,193 234,272" fill="none" stroke="#6B7280" stroke-width="0.9"/>
<circle cx="234" cy="272" r="2.2" fill="#6B7280"/>
<text x="280" y="165" font-size="14" fill="#1F2937">6×6 bolt in strike · 8 mm throw</text>
<text x="280" y="181" font-size="12" fill="#4B5563">flat side holds the lid shut</text>
<polyline points="300,188 300,265" fill="none" stroke="#6B7280" stroke-width="0.9"/>
<circle cx="300" cy="265" r="2.2" fill="#6B7280"/>
<text x="505" y="202.5" font-size="14" fill="#1F2937">override keyhole</text>
<polyline points="500,198 342.5,235" fill="none" stroke="#6B7280" stroke-width="0.9"/>
<circle cx="342.5" cy="235" r="2.2" fill="#6B7280"/>
<text x="505" y="262" font-size="14" fill="#1F2937">compression spring</text>
<text x="505" y="278" font-size="12" fill="#4B5563">pushes the bolt toward LOCKED</text>
<polyline points="500,266.5 443,266.5 428,270" fill="none" stroke="#6B7280" stroke-width="0.9"/>
<circle cx="428" cy="270" r="2.2" fill="#6B7280"/>
<text x="505" y="310" font-size="14" fill="#1F2937">bolt tab</text>
<text x="505" y="326" font-size="12" fill="#4B5563">cam can push it one way only</text>
<polyline points="500,314.5 349,306" fill="none" stroke="#6B7280" stroke-width="0.9"/>
<circle cx="349" cy="306" r="2.2" fill="#6B7280"/>
<text x="505" y="367" font-size="14" fill="#1F2937">printed top cover (fixed)</text>
<polyline points="500,371.5 466,380" fill="none" stroke="#6B7280" stroke-width="0.9"/>
<circle cx="466" cy="380" r="2.2" fill="#6B7280"/>
<text x="60" y="433" font-size="14" fill="#1F2937">KW11-3Z hatch switch (P0)</text>
<text x="60" y="449" font-size="12" fill="#4B5563">lever held in by the closed lid</text>
<polyline points="150,419.5 185,345" fill="none" stroke="#6B7280" stroke-width="0.9"/>
<circle cx="185" cy="345" r="2.2" fill="#6B7280"/>
<text x="310" y="433" font-size="14" fill="#1F2937">MG90S servo S3 + cam lobe r ≈ 12</text>
<text x="310" y="449" font-size="12" fill="#4B5563">REST: cam rotated clear of the tab</text>
<polyline points="317.5,419.5 310,358" fill="none" stroke="#6B7280" stroke-width="0.9"/>
<circle cx="310" cy="358" r="2.2" fill="#6B7280"/>
<polyline points="405,419.5 405,375" fill="none" stroke="#6B7280" stroke-width="0.9"/>
<circle cx="405" cy="375" r="2.2" fill="#6B7280"/>
<rect x="58" y="462" width="119.9" height="24" rx="12" fill="#FFFFFF" stroke="#1D4ED8" stroke-width="1.4"/>
<text x="70" y="478.5" font-size="11" fill="#1D4ED8" font-weight="bold" letter-spacing="0.4">BOLT</text>
<text x="106.6" y="478.5" font-size="12" fill="#1F2937">in strike</text>
<rect x="187.9" y="462" width="209.8" height="24" rx="12" fill="#FFFFFF" stroke="#B45309" stroke-width="1.4"/>
<text x="199.9" y="478.5" font-size="11" fill="#B45309" font-weight="bold" letter-spacing="0.4">SERVO S3</text>
<text x="266.1" y="478.5" font-size="12" fill="#1F2937">PWM off · cam REST</text>
<rect x="407.7" y="462" width="244" height="24" rx="12" fill="#FFFFFF" stroke="#15803D" stroke-width="1.4"/>
<text x="419.7" y="478.5" font-size="11" fill="#15803D" font-weight="bold" letter-spacing="0.4">SWITCH P0</text>
<text x="493.3" y="478.5" font-size="12" fill="#1F2937">pressed → CLOSED (LOW)</text>
<text x="58" y="508" font-size="13" fill="#1F2937">Spring holds the bolt in the strike · S3 PWM off.</text>
<text x="58" y="526" font-size="13" fill="#1F2937">Fail-secure: on power loss the hatch stays locked (the key still works).</text>
<rect x="812" y="100" width="748" height="440" rx="10" fill="#FFFFFF" stroke="#D1D5DB" stroke-width="1"/>
<text x="830" y="128" font-size="13" fill="#374151" font-weight="bold" letter-spacing="0.6">2 · UNLOCK</text>
<text x="1542" y="128" font-size="12" fill="#4B5563" text-anchor="end">outside ↑ · inside ↓</text>
<g transform="translate(1042,300) scale(5,-5)">
<g clip-path="url(#vp)">
<use xlink:href="#lidghost"/>
<use xlink:href="#lid" transform="rotate(15 -45 10)"/>
<use xlink:href="#frame"/>
<use xlink:href="#servo"/>
<use xlink:href="#bolt" transform="translate(8,0)"/>
<path d="M28,5 L28.8,5 L28.98,7 L29.35,3 L29.72,7 L30.08,3 L30.45,7 L30.82,3 L31.18,7 L31.55,3 L31.92,7 L32.28,3 L32.65,7 L33.02,3 L33.2,5 L34,5" fill="none" stroke="#B45309" stroke-width="0.45" stroke-linejoin="round"/>
<use xlink:href="#camghost" transform="translate(15,-11) rotate(180)"/>
<use xlink:href="#cam" transform="translate(15,-11) rotate(65)"/>
<use xlink:href="#swbody"/>
<use xlink:href="#lever" transform="translate(-23.5,-3.2) rotate(22)"/>
<polyline points="1.8,-8.19 1.97,-7.49 2.17,-6.79 2.42,-6.11 2.7,-5.44 3.02,-4.78 3.37,-4.15 3.75,-3.53 4.17,-2.94 4.62,-2.37 5.1,-1.82 5.61,-1.3 6.14,-0.81" fill="none" stroke="#1D4ED8" stroke-width="0.45" stroke-linecap="round" marker-end="url(#ahB)"/>
<polyline points="3.4,5 11.5,5" fill="none" stroke="#1D4ED8" stroke-width="0.5" stroke-linecap="round" marker-end="url(#ahB)"/>
<polyline points="-6.75,21.69 -6.85,22.03 -6.96,22.36 -7.07,22.69 -7.18,23.02 -7.29,23.35 -7.41,23.68 -7.53,24.01 -7.66,24.33 -7.78,24.66 -7.91,24.98 -8.04,25.31 -8.18,25.63 -8.32,25.95 -8.46,26.27 -8.6,26.59 -8.75,26.9" fill="none" stroke="#1D4ED8" stroke-width="0.45" stroke-linecap="round" marker-end="url(#ahB)"/>
</g></g>
<text x="0" y="0" font-size="12" fill="#1E3A8A" transform="translate(849.82,275.89) rotate(-15)">HATCH LID · hinge ←</text>
<text x="984.5" y="174" font-size="14" fill="#1F2937" text-anchor="end">lid swings open</text>
<text x="1057" y="174" font-size="14" fill="#1F2937">bolt tip clear of the strike</text>
<polyline points="1067,183 1056,278" fill="none" stroke="#6B7280" stroke-width="0.9"/>
<circle cx="1056" cy="278" r="2.2" fill="#6B7280"/>
<text x="1277" y="262" font-size="14" fill="#1F2937">spring compressed</text>
<polyline points="1272,266.5 1207,266.5 1201,271" fill="none" stroke="#6B7280" stroke-width="0.9"/>
<circle cx="1201" cy="271" r="2.2" fill="#6B7280"/>
<text x="1277" y="310" font-size="14" fill="#1F2937">lobe pushes the tab</text>
<text x="1277" y="326" font-size="12" fill="#4B5563">bolt slides back 8 mm</text>
<polyline points="1272,314.5 1159,308" fill="none" stroke="#6B7280" stroke-width="0.9"/>
<circle cx="1159" cy="308" r="2.2" fill="#6B7280"/>
<text x="832" y="433" font-size="14" fill="#1F2937">switch lever released</text>
<text x="832" y="449" font-size="12" fill="#4B5563">→ ! HATCH OPEN → cam back to REST</text>
<polyline points="922,419.5 984.5,292" fill="none" stroke="#6B7280" stroke-width="0.9"/>
<circle cx="984.5" cy="292" r="2.2" fill="#6B7280"/>
<text x="1082" y="433" font-size="14" fill="#1F2937">cam swings to OPEN</text>
<text x="1082" y="449" font-size="12" fill="#4B5563">S3 PWM on only during the window</text>
<polyline points="1122,419.5 1130,329.5" fill="none" stroke="#6B7280" stroke-width="0.9"/>
<circle cx="1130" cy="329.5" r="2.2" fill="#6B7280"/>
<rect x="830" y="462" width="153.4" height="24" rx="12" fill="#FFFFFF" stroke="#1D4ED8" stroke-width="1.4"/>
<text x="842" y="478.5" font-size="11" fill="#1D4ED8" font-weight="bold" letter-spacing="0.4">BOLT</text>
<text x="878.6" y="478.5" font-size="12" fill="#1F2937">retracted 8 mm</text>
<rect x="993.4" y="462" width="203.1" height="24" rx="12" fill="#FFFFFF" stroke="#B45309" stroke-width="1.4"/>
<text x="1005.4" y="478.5" font-size="11" fill="#B45309" font-weight="bold" letter-spacing="0.4">SERVO S3</text>
<text x="1071.6" y="478.5" font-size="12" fill="#1F2937">PWM on · cam OPEN</text>
<rect x="1206.5" y="462" width="197.1" height="24" rx="12" fill="#FFFFFF" stroke="#15803D" stroke-width="1.4"/>
<text x="1218.5" y="478.5" font-size="11" fill="#15803D" font-weight="bold" letter-spacing="0.4">SWITCH P0</text>
<text x="1292.1" y="478.5" font-size="12" fill="#1F2937">released → OPEN</text>
<text x="830" y="508" font-size="13" fill="#1F2937">Host sends UNLOCK → S3 cam retracts the bolt.</text>
<text x="830" y="526" font-size="13" fill="#1F2937">Held until ! HATCH OPEN or 5 s timeout → cam returns to REST.</text>
<rect x="40" y="560" width="748" height="440" rx="10" fill="#FFFFFF" stroke="#D1D5DB" stroke-width="1"/>
<text x="58" y="588" font-size="13" fill="#374151" font-weight="bold" letter-spacing="0.6">3 · CLOSING (SELF-LATCHING)</text>
<text x="770" y="588" font-size="12" fill="#4B5563" text-anchor="end">outside ↑ · inside ↓</text>
<g transform="translate(270,760) scale(5,-5)">
<g clip-path="url(#vp)">
<use xlink:href="#lidghost"/>
<use xlink:href="#lid" transform="rotate(5 -45 10)"/>
<use xlink:href="#frame"/>
<use xlink:href="#servo"/>
<use xlink:href="#bolt" transform="translate(4.43,0)"/>
<path d="M24.43,5 L25.23,5 L25.56,7 L26.23,3 L26.89,7 L27.56,3 L28.22,7 L28.88,3 L29.55,7 L30.21,3 L30.88,7 L31.54,3 L32.2,7 L32.87,3 L33.2,5 L34,5" fill="none" stroke="#B45309" stroke-width="0.45" stroke-linejoin="round"/>
<use xlink:href="#cam" transform="translate(15,-11) rotate(180)"/>
<use xlink:href="#swbody"/>
<use xlink:href="#lever" transform="translate(-23.5,-3.2) rotate(19.58)"/>
<polyline points="-6.55,21.03 -6.46,20.71 -6.37,20.39 -6.29,20.08 -6.21,19.76 -6.13,19.44 -6.05,19.13 -5.98,18.81 -5.91,18.49 -5.84,18.17 -5.78,17.85 -5.71,17.53 -5.65,17.2 -5.6,16.88 -5.54,16.56 -5.49,16.24 -5.44,15.91" fill="none" stroke="#1D4ED8" stroke-width="0.45" stroke-linecap="round" marker-end="url(#ahB)"/>
<polyline points="1.2,5.6 8.2,5.6" fill="none" stroke="#1D4ED8" stroke-width="0.5" stroke-linecap="round" marker-end="url(#ahB)"/>
<polyline points="-2.7,6.28 -0.93,4.51" fill="none" stroke="#DC2626" stroke-width="0.45" stroke-linecap="round" marker-end="url(#ahR)"/>
<circle cx="-0.3" cy="3.87" r="0.55" fill="#DC2626"/>
</g></g>
<text x="0" y="0" font-size="12" fill="#1E3A8A" transform="translate(72.82,741.19) rotate(-5)">HATCH LID · hinge ←</text>
<text x="220" y="662" font-size="14" fill="#1F2937" text-anchor="end">lid swinging shut</text>
<text x="290" y="634" font-size="14" fill="#1F2937">lid edge rides the 45° bevel</text>
<polyline points="302.5,643 270.52,738.14" fill="none" stroke="#6B7280" stroke-width="0.9"/>
<circle cx="270.52" cy="738.14" r="2.2" fill="#6B7280"/>
<text x="505" y="722" font-size="14" fill="#1F2937">① lid edge pushes the bolt back</text>
<text x="505" y="738" font-size="12" fill="#4B5563">spring compresses</text>
<polyline points="500,726.5 445,726.5 433,730" fill="none" stroke="#6B7280" stroke-width="0.9"/>
<circle cx="433" cy="730" r="2.2" fill="#6B7280"/>
<text x="505" y="770" font-size="14" fill="#1F2937">② slot lines up → spring</text>
<text x="505" y="786" font-size="12" fill="#4B5563">snaps the bolt into the strike</text>
<polyline points="500,774.5 368,766" fill="none" stroke="#6B7280" stroke-width="0.9"/>
<circle cx="368" cy="766" r="2.2" fill="#6B7280"/>
<text x="60" y="893" font-size="14" fill="#1F2937">lid seats → lever pressed</text>
<text x="60" y="909" font-size="12" fill="#4B5563">→ ! HATCH CLOSED</text>
<polyline points="150,879.5 212.5,755.5" fill="none" stroke="#6B7280" stroke-width="0.9"/>
<circle cx="212.5" cy="755.5" r="2.2" fill="#6B7280"/>
<text x="310" y="893" font-size="14" fill="#1F2937">cam stays at REST</text>
<text x="310" y="909" font-size="12" fill="#4B5563">bolt slides away from it · no power</text>
<polyline points="317.5,879.5 310,818" fill="none" stroke="#6B7280" stroke-width="0.9"/>
<circle cx="310" cy="818" r="2.2" fill="#6B7280"/>
<rect x="58" y="922" width="180.2" height="24" rx="12" fill="#FFFFFF" stroke="#1D4ED8" stroke-width="1.4"/>
<text x="70" y="938.5" font-size="11" fill="#1D4ED8" font-weight="bold" letter-spacing="0.4">BOLT</text>
<text x="106.6" y="938.5" font-size="12" fill="#1F2937">pushed back by lid</text>
<rect x="248.2" y="922" width="209.8" height="24" rx="12" fill="#FFFFFF" stroke="#B45309" stroke-width="1.4"/>
<text x="260.2" y="938.5" font-size="11" fill="#B45309" font-weight="bold" letter-spacing="0.4">SERVO S3</text>
<text x="326.4" y="938.5" font-size="12" fill="#1F2937">PWM off · cam REST</text>
<rect x="468" y="922" width="257.4" height="24" rx="12" fill="#FFFFFF" stroke="#15803D" stroke-width="1.4"/>
<text x="480" y="938.5" font-size="11" fill="#15803D" font-weight="bold" letter-spacing="0.4">SWITCH P0</text>
<text x="553.6" y="938.5" font-size="12" fill="#1F2937">pressed on snap → CLOSED</text>
<text x="58" y="968" font-size="13" fill="#1F2937">Lid edge rides the bevel → bolt snaps into the strike (self-latching).</text>
<text x="58" y="986" font-size="13" fill="#1F2937">Hatch switch reports ! HATCH CLOSED.</text>
<rect x="812" y="560" width="748" height="440" rx="10" fill="#FFFFFF" stroke="#D1D5DB" stroke-width="1"/>
<text x="830" y="588" font-size="13" fill="#374151" font-weight="bold" letter-spacing="0.6">4 · OVERRIDE (MECHANICAL KEY)</text>
<text x="1542" y="588" font-size="12" fill="#4B5563" text-anchor="end">outside ↑ · inside ↓</text>
<g transform="translate(1042,760) scale(5,-5)">
<g clip-path="url(#vp)">
<use xlink:href="#lidghost"/>
<use xlink:href="#lid" transform="rotate(10 -45 10)"/>
<use xlink:href="#frame"/>
<use xlink:href="#servo"/>
<use xlink:href="#bolt" transform="translate(8,0)"/>
<path d="M28,5 L28.8,5 L28.98,7 L29.35,3 L29.72,7 L30.08,3 L30.45,7 L30.82,3 L31.18,7 L31.55,3 L31.92,7 L32.28,3 L32.65,7 L33.02,3 L33.2,5 L34,5" fill="none" stroke="#B45309" stroke-width="0.45" stroke-linejoin="round"/>
<use xlink:href="#cam" transform="translate(15,-11) rotate(180)"/>
<use xlink:href="#swbody"/>
<use xlink:href="#lever" transform="translate(-23.5,-3.2) rotate(22)"/>
<use xlink:href="#key"/>
<polyline points="5.5,30 5.5,19.5" fill="none" stroke="#DC2626" stroke-width="0.5" stroke-linecap="round" marker-end="url(#ahR)"/>
<polyline points="3.4,5 11.5,5" fill="none" stroke="#1D4ED8" stroke-width="0.5" stroke-linecap="round" marker-end="url(#ahB)"/>
<polyline points="-5.87,18.32 -5.96,18.7 -6.04,19.08 -6.14,19.47 -6.23,19.85 -6.33,20.23 -6.43,20.61 -6.54,20.98 -6.65,21.36 -6.76,21.74 -6.88,22.11 -7,22.49 -7.12,22.86 -7.25,23.23 -7.38,23.6 -7.52,23.97 -7.66,24.33" fill="none" stroke="#1D4ED8" stroke-width="0.45" stroke-linecap="round" marker-end="url(#ahB)"/>
</g></g>
<text x="0" y="0" font-size="12" fill="#1E3A8A" transform="translate(847.44,738.65) rotate(-10)">HATCH LID · hinge ←</text>
<text x="987" y="620" font-size="14" fill="#1F2937" text-anchor="end">lid opens</text>
<text x="987" y="636" font-size="12" fill="#4B5563" text-anchor="end">with no unlock window</text>
<text x="1061" y="643" font-size="14" fill="#DC2626" text-anchor="end">push</text>
<text x="1277" y="625" font-size="14" fill="#DC2626">printed override key</text>
<text x="1277" y="641" font-size="12" fill="#4B5563">SAF-2 / CS-7 · works with no power</text>
<polyline points="1272,629.5 1141.5,629.5" fill="none" stroke="#6B7280" stroke-width="0.9"/>
<circle cx="1141.5" cy="629.5" r="2.2" fill="#6B7280"/>
<text x="1277" y="675" font-size="14" fill="#1F2937">key wedge rides a ramp</text>
<text x="1277" y="691" font-size="12" fill="#4B5563">on the bolt → bolt slides back</text>
<polyline points="1272,679.5 1124,733" fill="none" stroke="#6B7280" stroke-width="0.9"/>
<circle cx="1124" cy="733" r="2.2" fill="#6B7280"/>
<text x="1277" y="722" font-size="14" fill="#1F2937">spring compressed</text>
<polyline points="1272,726.5 1207,726.5 1201,731" fill="none" stroke="#6B7280" stroke-width="0.9"/>
<circle cx="1201" cy="731" r="2.2" fill="#6B7280"/>
<text x="832" y="893" font-size="14" fill="#1F2937">lever released, no window</text>
<text x="832" y="909" font-size="12" fill="#DC2626">→ ! FORCED · host logs OVERRIDE</text>
<polyline points="922,879.5 984.5,752" fill="none" stroke="#6B7280" stroke-width="0.9"/>
<circle cx="984.5" cy="752" r="2.2" fill="#6B7280"/>
<text x="1082" y="893" font-size="14" fill="#1F2937">cam at REST — not resisting</text>
<text x="1082" y="909" font-size="12" fill="#4B5563">the tab moves away from the lobe</text>
<polyline points="1089.5,879.5 1082,818" fill="none" stroke="#6B7280" stroke-width="0.9"/>
<circle cx="1082" cy="818" r="2.2" fill="#6B7280"/>
<rect x="830" y="922" width="180.2" height="24" rx="12" fill="#FFFFFF" stroke="#1D4ED8" stroke-width="1.4"/>
<text x="842" y="938.5" font-size="11" fill="#1D4ED8" font-weight="bold" letter-spacing="0.4">BOLT</text>
<text x="878.6" y="938.5" font-size="12" fill="#1F2937">pushed back by key</text>
<rect x="1020.2" y="922" width="209.8" height="24" rx="12" fill="#FFFFFF" stroke="#B45309" stroke-width="1.4"/>
<text x="1032.2" y="938.5" font-size="11" fill="#B45309" font-weight="bold" letter-spacing="0.4">SERVO S3</text>
<text x="1098.4" y="938.5" font-size="12" fill="#1F2937">PWM off · cam REST</text>
<rect x="1240" y="922" width="223.9" height="24" rx="12" fill="#FFFFFF" stroke="#DC2626" stroke-width="1.4"/>
<text x="1252" y="938.5" font-size="11" fill="#DC2626" font-weight="bold" letter-spacing="0.4">SWITCH P0</text>
<text x="1325.6" y="938.5" font-size="12" fill="#1F2937">released → ! FORCED</text>
<text x="830" y="968" font-size="13" fill="#1F2937">Printed key retracts the bolt (SAF-2 / CS-7) · lid opens with no unlock window</text>
<text x="830" y="986" font-size="13" fill="#1F2937">→ ! FORCED → host logs OVERRIDE, flagged for review (every key use is logged).</text>
<text x="40" y="1032" font-size="13" fill="#374151" font-weight="bold" letter-spacing="0.6">STATE SEQUENCE</text>
<rect x="40" y="1046" width="104" height="40" rx="6" fill="#F9FAFB" stroke="#374151" stroke-width="1.5"/>
<text x="92" y="1065" font-size="13" fill="#1F2937" font-weight="bold" text-anchor="middle">LOCKED</text>
<text x="92" y="1078" font-size="11" fill="#4B5563" text-anchor="middle">panel 1</text>
<polyline points="147,1066 164,1066" fill="none" stroke="#4B5563" stroke-width="1.6" marker-end="url(#ahG)"/>
<rect x="172" y="1046" width="104" height="40" rx="6" fill="#F9FAFB" stroke="#374151" stroke-width="1.5"/>
<text x="224" y="1065" font-size="13" fill="#1F2937" font-weight="bold" text-anchor="middle">UNLOCK</text>
<text x="224" y="1078" font-size="11" fill="#4B5563" text-anchor="middle">panel 2</text>
<polyline points="279,1066 296,1066" fill="none" stroke="#4B5563" stroke-width="1.6" marker-end="url(#ahG)"/>
<rect x="304" y="1046" width="112" height="40" rx="6" fill="#F9FAFB" stroke="#374151" stroke-width="1.5"/>
<text x="360" y="1071" font-size="13" fill="#1F2937" font-weight="bold" text-anchor="middle">(hatch open)</text>
<polyline points="419,1066 436,1066" fill="none" stroke="#4B5563" stroke-width="1.6" marker-end="url(#ahG)"/>
<rect x="444" y="1046" width="104" height="40" rx="6" fill="#F9FAFB" stroke="#374151" stroke-width="1.5"/>
<text x="496" y="1065" font-size="13" fill="#1F2937" font-weight="bold" text-anchor="middle">CLOSING</text>
<text x="496" y="1078" font-size="11" fill="#4B5563" text-anchor="middle">panel 3</text>
<polyline points="551,1066 568,1066" fill="none" stroke="#4B5563" stroke-width="1.6" marker-end="url(#ahG)"/>
<rect x="576" y="1046" width="82" height="40" rx="6" fill="#F9FAFB" stroke="#374151" stroke-width="1.5"/>
<text x="617" y="1065" font-size="13" fill="#1F2937" font-weight="bold" text-anchor="middle">LOCKED</text>
<text x="617" y="1078" font-size="11" fill="#4B5563" text-anchor="middle">panel 1</text>
<rect x="172" y="1108" width="150" height="40" rx="6" fill="#F9FAFB" stroke="#DC2626" stroke-width="1.5" stroke-dasharray="5,3"/>
<text x="247" y="1127" font-size="13" fill="#1F2937" font-weight="bold" text-anchor="middle">OVERRIDE (key)</text>
<text x="247" y="1140" font-size="11" fill="#4B5563" text-anchor="middle">panel 4</text>
<polyline points="92,1088 92,1128 164,1128" fill="none" stroke="#DC2626" stroke-width="1.6" marker-end="url(#ahR)"/>
<polyline points="324,1128 360,1128 360,1095" fill="none" stroke="#DC2626" stroke-width="1.6" marker-end="url(#ahR)" stroke-dasharray="5,3"/>
<text x="370" y="1133" font-size="11" fill="#DC2626">! FORCED → OVERRIDE logged, flagged</text>
<text x="40" y="1186" font-size="12" fill="#4B5563">UNLOCK is sent only after the host's restock checks (GOTO j first; CS column: 2FA + witness).</text>
<rect x="676" y="1018" width="320" height="182" rx="10" fill="#FFFFFF" stroke="#D1D5DB" stroke-width="1"/>
<text x="690" y="1042" font-size="13" fill="#374151" font-weight="bold" letter-spacing="0.6">INSET · TOP COVER, TOP VIEW</text>
<rect x="702.2" y="1068.2" width="111.6" height="111.6" rx="6" fill="#E5E7EB" stroke="#374151" stroke-width="1.5"/>
<circle cx="758" cy="1124" r="49.6" fill="none" stroke="#1D4ED8" stroke-width="1" stroke-dasharray="4,3"/>
<rect x="-5.58" y="21.08" width="11.16" height="26.04" fill="none" stroke="#1D4ED8" stroke-width="1" stroke-dasharray="3,2" transform="translate(758,1124) rotate(0)"/>
<rect x="-5.58" y="21.08" width="11.16" height="26.04" fill="none" stroke="#1D4ED8" stroke-width="1" stroke-dasharray="3,2" transform="translate(758,1124) rotate(45)"/>
<rect x="-5.58" y="21.08" width="11.16" height="26.04" fill="none" stroke="#1D4ED8" stroke-width="1" stroke-dasharray="3,2" transform="translate(758,1124) rotate(90)"/>
<rect x="-5.58" y="21.08" width="11.16" height="26.04" fill="none" stroke="#1D4ED8" stroke-width="1" stroke-dasharray="3,2" transform="translate(758,1124) rotate(135)"/>
<rect x="-5.58" y="21.08" width="11.16" height="26.04" fill="none" stroke="#1D4ED8" stroke-width="1" stroke-dasharray="3,2" transform="translate(758,1124) rotate(180)"/>
<rect x="-5.58" y="21.08" width="11.16" height="26.04" fill="none" stroke="#1D4ED8" stroke-width="1" stroke-dasharray="3,2" transform="translate(758,1124) rotate(225)"/>
<rect x="-5.58" y="21.08" width="11.16" height="26.04" fill="none" stroke="#1D4ED8" stroke-width="1" stroke-dasharray="3,2" transform="translate(758,1124) rotate(270)"/>
<rect x="-5.58" y="21.08" width="11.16" height="26.04" fill="none" stroke="#1D4ED8" stroke-width="1" stroke-dasharray="3,2" transform="translate(758,1124) rotate(315)"/>
<circle cx="758" cy="1124" r="3.1" fill="#FFFFFF" stroke="#374151" stroke-width="1"/>
<rect x="751.8" y="1145.7" width="12.4" height="24.8" fill="#BFDBFE" stroke="#1D4ED8" stroke-width="1.8"/>
<line x1="751.8" y1="1147.7" x2="751.8" y2="1168.5" stroke="#374151" stroke-width="3"/>
<rect x="765.2" y="1154.1" width="7" height="8" fill="#FDE68A" stroke="#B45309" stroke-width="1"/>
<text x="758" y="1192.8" font-size="11" fill="#4B5563" font-weight="bold" text-anchor="middle">FRONT (tray)</text>
<text x="854" y="1070" font-size="13" fill="#DC2626" font-weight="bold">one column wide —</text>
<text x="854" y="1086" font-size="13" fill="#DC2626" font-weight="bold">only the column under</text>
<text x="854" y="1102" font-size="13" fill="#DC2626" font-weight="bold">it is reachable</text>
<polyline points="850,1082 765.2,1153.7" fill="none" stroke="#6B7280" stroke-width="0.9"/>
<circle cx="765.2" cy="1153.7" r="2.2" fill="#6B7280"/>
<text x="854" y="1128" font-size="12" fill="#1F2937">hatch 20 × 40 mm over</text>
<text x="854" y="1143" font-size="12" fill="#1F2937">the front column position</text>
<text x="854" y="1162" font-size="11" fill="#4B5563">dark edge = hinge</text>
<text x="854" y="1177" font-size="11" fill="#4B5563">amber = S3 latch</text>
<text x="854" y="1192" font-size="11" fill="#4B5563">dashed = 8 turret columns</text>
<rect x="1012" y="1018" width="548" height="184" rx="10" fill="#FFFFFF" stroke="#D1D5DB" stroke-width="1"/>
<text x="1028" y="1044" font-size="13" fill="#374151" font-weight="bold" letter-spacing="0.6">LEGEND</text>
<text x="1544" y="1044" font-size="12" fill="#4B5563" text-anchor="end">side section · not to scale</text>
<rect x="1028" y="1069" width="24" height="14" rx="2" fill="#E5E7EB" stroke="#374151" stroke-width="1.5"/>
<text x="1060" y="1080" font-size="12" fill="#1F2937">Printed structure</text>
<rect x="1028" y="1105" width="24" height="14" rx="2" fill="#BFDBFE" stroke="#1D4ED8" stroke-width="1.5"/>
<text x="1060" y="1116" font-size="12" fill="#1F2937">Moving part</text>
<rect x="1028" y="1141" width="24" height="14" rx="2" fill="#FDE68A" stroke="#B45309" stroke-width="1.5"/>
<text x="1060" y="1152" font-size="12" fill="#1F2937">Actuator (S3, cam)</text>
<rect x="1208" y="1069" width="24" height="14" rx="2" fill="#BBF7D0" stroke="#15803D" stroke-width="1.5"/>
<text x="1240" y="1080" font-size="12" fill="#1F2937">Sensor (switch)</text>
<path d="M1208,1112 L1209.5,1112 L1210.81,1116 L1213.44,1108 L1216.06,1116 L1218.69,1108 L1221.31,1116 L1223.94,1108 L1226.56,1116 L1229.19,1108 L1230.5,1112 L1232,1112" fill="none" stroke="#B45309" stroke-width="1.6"/>
<text x="1240" y="1116" font-size="12" fill="#1F2937">Spring</text>
<rect x="1208" y="1141" width="24" height="14" rx="2" fill="none" stroke="#1D4ED8" stroke-width="1.5" stroke-dasharray="4,3"/>
<text x="1240" y="1152" font-size="12" fill="#1F2937">Earlier position</text>
<polyline points="1388,1076 1406,1076" fill="none" stroke="#1D4ED8" stroke-width="2" marker-end="url(#ahB)"/>
<text x="1420" y="1080" font-size="12" fill="#1F2937">Motion</text>
<polyline points="1388,1112 1406,1112" fill="none" stroke="#DC2626" stroke-width="2" marker-end="url(#ahR)"/>
<text x="1420" y="1116" font-size="12" fill="#1F2937">Force / override</text>
<circle cx="1398" cy="1148" r="3" fill="#DC2626"/>
<text x="1420" y="1152" font-size="12" fill="#1F2937">Contact point</text>
<text x="1028" y="1188" font-size="11" fill="#4B5563">Events: ! HATCH OPEN · ! HATCH CLOSED · ! FORCED (host command: UNLOCK)</text>
<text x="40" y="1248" font-size="14" fill="#1F2937" font-weight="bold">S3 is the only latch in v2.</text>
</svg>
