<?xml version="1.0" encoding="UTF-8"?>
<svg xmlns="http://www.w3.org/2000/svg" xmlns:xlink="http://www.w3.org/1999/xlink" viewBox="0 0 1600 1130" width="1600" height="1130" font-family="Helvetica, Arial, sans-serif">
<rect width="100%" height="100%" fill="#FFFFFF"/>
<defs>
  <style>
    .t{font-size:14px;fill:#1F2937}
    .tb{font-size:14px;font-weight:bold;fill:#1F2937}
    .s{font-size:12px;fill:#4B5563}
    .sb{font-size:12px;font-weight:bold;fill:#1F2937}
    .xs{font-size:11px;fill:#4B5563}
    .xsb{font-size:11px;font-weight:bold;fill:#374151}
    .vl{font-size:13px;font-weight:bold;fill:#374151;letter-spacing:0.5px}
    .ld{stroke:#6B7280;stroke-width:0.9;fill:none}
    .st{fill:#E5E7EB;stroke:#374151;stroke-width:1.2}
    .mv{fill:#BFDBFE;stroke:#1D4ED8;stroke-width:1.2}
    .ac{fill:#FDE68A;stroke:#B45309;stroke-width:1.2}
    .ref{stroke:#9CA3AF;stroke-width:1;stroke-dasharray:5,4;fill:none}
    .rref{stroke:#DC2626;stroke-width:1.2;stroke-dasharray:5,4;fill:none}
  </style>
  <marker id="dot" viewBox="0 0 6 6" refX="3" refY="3" markerWidth="6" markerHeight="6" markerUnits="userSpaceOnUse"><circle cx="3" cy="3" r="2.4" fill="#6B7280"/></marker>
  <marker id="arrB" viewBox="0 0 10 10" refX="8" refY="5" markerWidth="10" markerHeight="10" markerUnits="userSpaceOnUse" orient="auto"><path d="M0,1 L10,5 L0,9 Z" fill="#1D4ED8"/></marker>
  <marker id="arrR" viewBox="0 0 10 10" refX="8" refY="5" markerWidth="10" markerHeight="10" markerUnits="userSpaceOnUse" orient="auto"><path d="M0,1 L10,5 L0,9 Z" fill="#DC2626"/></marker>
  <marker id="arrGr" viewBox="0 0 10 10" refX="8" refY="5" markerWidth="10" markerHeight="10" markerUnits="userSpaceOnUse" orient="auto"><path d="M0,1 L10,5 L0,9 Z" fill="#15803D"/></marker>
  <marker id="arrK" viewBox="0 0 10 10" refX="8" refY="5" markerWidth="10" markerHeight="10" markerUnits="userSpaceOnUse" orient="auto"><path d="M0,1 L10,5 L0,9 Z" fill="#374151"/></marker>
  <marker id="kE" viewBox="0 0 10 10" refX="10" refY="5" markerWidth="7" markerHeight="7" markerUnits="userSpaceOnUse" orient="auto"><path d="M0,0 L10,5 L0,10 Z" fill="#1F2937"/></marker>
  <marker id="kS" viewBox="0 0 10 10" refX="0" refY="5" markerWidth="7" markerHeight="7" markerUnits="userSpaceOnUse" orient="auto"><path d="M10,0 L0,5 L10,10 Z" fill="#1F2937"/></marker>
  <marker id="rE" viewBox="0 0 10 10" refX="10" refY="5" markerWidth="6" markerHeight="6" markerUnits="userSpaceOnUse" orient="auto"><path d="M0,0 L10,5 L0,10 Z" fill="#DC2626"/></marker>
  <marker id="rS" viewBox="0 0 10 10" refX="0" refY="5" markerWidth="6" markerHeight="6" markerUnits="userSpaceOnUse" orient="auto"><path d="M10,0 L0,5 L10,10 Z" fill="#DC2626"/></marker>
  <pattern id="hatch" width="8" height="8" patternUnits="userSpaceOnUse" patternTransform="rotate(45)"><rect width="8" height="8" fill="#F3F4F6"/><line x1="0" y1="0" x2="0" y2="8" stroke="#E5E7EB" stroke-width="3"/></pattern>
  <!-- vial side-on at 1.6 px/mm (35 x 16 mm); red band = cap -->
  <symbol id="vss" overflow="visible">
    <rect x="-28" y="-12.8" width="56" height="25.6" rx="4" fill="#FFFFFF" stroke="#6B7280" stroke-width="1.2"/>
    <rect x="17.8" y="-12.8" width="10.2" height="25.6" rx="3" fill="#FCA5A5" stroke="#6B7280" stroke-width="1"/>
  </symbol>
  <!-- vial end-on (inset), r = 8 mm at 5 px/mm -->
  <symbol id="vend" overflow="visible">
    <circle r="40" fill="#FCA5A5" stroke="#6B7280" stroke-width="1.5"/><circle r="25" fill="#FFFFFF" stroke="#6B7280" stroke-width="1"/>
  </symbol>

<clipPath id="ct0"><rect x="46" y="122" width="378" height="272"/></clipPath>
<clipPath id="cs0"><rect x="136" y="400" width="210" height="134"/></clipPath>
<clipPath id="ct1"><rect x="451" y="122" width="378" height="272"/></clipPath>
<clipPath id="cs1"><rect x="541" y="400" width="210" height="134"/></clipPath>
<clipPath id="ct2"><rect x="856" y="122" width="378" height="272"/></clipPath>
<clipPath id="cs2"><rect x="946" y="400" width="210" height="134"/></clipPath>
</defs>
<text x="40" y="48" font-size="24" font-weight="bold" fill="#111827">Fig 7 — Dosing-disc cycle and weight check</text>
<text x="40" y="72" font-size="14" fill="#4B5563">Top: one DISPENSE k, each step in top view with a small side section. The disc rests at REST with its pocket empty. Bottom: what the load cell sees.</text>
<rect x="40" y="90" width="390" height="512" rx="8" fill="none" stroke="#D1D5DB" stroke-width="1.2"/>
<circle cx="64" cy="109" r="11" fill="#374151"/><text x="64" y="113.5" font-size="13" font-weight="bold" fill="#FFFFFF" text-anchor="middle">0</text>
<text x="82" y="114" class="vl">REST — POCKET EMPTY, OUTSIDE</text>
<g clip-path="url(#ct0)">
<circle cx="235.0" cy="98.0" r="160.0" fill="#EFF6FF" stroke="#1D4ED8" stroke-width="1.4"/>
<rect x="40" y="358.0" width="390" height="10.0" class="st"/>
<rect x="175.0" y="368.0" width="120.0" height="80.0" class="st"/>
<circle cx="235.0" cy="258.0" r="95.0" fill="#DBEAFE" stroke="#1D4ED8" stroke-width="1.4"/>
<g transform="rotate(160,235.0,258.0)"><rect x="216.0" y="169.0" width="38.0" height="78.0" fill="none" stroke="#374151" stroke-width="1" stroke-dasharray="4,3"/></g>
<path d="M230.0,338.0 V358.0 M274.0,338.0 V358.0" stroke="#374151" stroke-width="1" stroke-dasharray="4,3"/>
<g transform="rotate(160,235.0,258.0)"><rect x="213.0" y="166.0" width="44.0" height="84.0" fill="#F3F4F6" stroke="#1E3A8A" stroke-width="0.8"/><rect x="216.0" y="169.0" width="38.0" height="78.0" fill="#E5E7EB" stroke="#1E3A8A" stroke-width="1.6"/>
</g>
<g transform="rotate(45,235.0,98.0)"><rect x="213.0" y="166.0" width="44.0" height="84.0" fill="#EEF2FF" stroke="#DC2626" stroke-width="1.3"/><rect x="219.0" y="173.0" width="32.0" height="70.0" rx="3" fill="#FFFFFF" stroke="#6B7280" stroke-width="1.1"/><rect x="219.0" y="231.0" width="32.0" height="12.0" rx="2" fill="#FCA5A5" stroke="#6B7280" stroke-width="1"/></g>
<g transform="rotate(-45,235.0,98.0)"><rect x="213.0" y="166.0" width="44.0" height="84.0" fill="#EEF2FF" stroke="#DC2626" stroke-width="1.3"/><rect x="219.0" y="173.0" width="32.0" height="70.0" rx="3" fill="#FFFFFF" stroke="#6B7280" stroke-width="1.1"/><rect x="219.0" y="231.0" width="32.0" height="12.0" rx="2" fill="#FCA5A5" stroke="#6B7280" stroke-width="1"/></g>
<g transform="rotate(0,235.0,98.0)"><rect x="213.0" y="166.0" width="44.0" height="84.0" fill="#EEF2FF" stroke="#DC2626" stroke-width="2.2"/><rect x="219.0" y="173.0" width="32.0" height="70.0" rx="3" fill="#FFFFFF" stroke="#6B7280" stroke-width="1.1"/><rect x="219.0" y="231.0" width="32.0" height="12.0" rx="2" fill="#FCA5A5" stroke="#6B7280" stroke-width="1"/></g>
</g>
<text x="235.0" y="158.0" class="xsb" text-anchor="middle">col k</text>
<text x="54" y="381.0" class="xs">front wall</text>
<text x="299.0" y="382.0" class="xs">shared tray (front)</text>
<path d="M79.6,180.6 A176.0,176.0 0 0 0 131.5,240.4" fill="none" stroke="#1D4ED8" stroke-width="2.2" marker-end="url(#arrB)"/>
<text x="54" y="264" class="sb">turret move</text>
<text x="342" y="300" class="xsb">REST:</text><text x="342" y="313" class="xs">pocket empty,</text><text x="342" y="326" class="xs">over the exit</text><text x="342" y="339" class="xs">hole</text>
<line x1="340" y1="309" x2="259.0" y2="306.0" class="ld" marker-end="url(#dot)"/>
<text x="54" y="300" class="xsb">disc top flush</text><text x="54" y="313" class="xs">under column k:</text><text x="54" y="326" class="xs">no dip</text>
<line x1="126" y1="309" x2="203.0" y2="246.0" class="ld" marker-end="url(#dot)"/>
<text x="54" y="414" class="xsb">SIDE SECTION</text>
<text x="54" y="428" class="xs">front →</text>
<g clip-path="url(#cs0)">
<rect x="102.0" y="466.0" width="51.5" height="4.8" class="st" />
<rect x="150.0" y="470.8" width="3.5" height="27.2" class="st" />
<rect x="150.0" y="493.2" width="75.2" height="4.8" class="st" />
<rect x="234.8" y="493.2" width="4.8" height="4.8" class="st" />
<rect x="295.6" y="493.2" width="16.0" height="4.8" class="st" />
<rect x="306.5" y="466.0" width="5.1" height="27.2" class="st" />
<rect x="319.6" y="394.0" width="8.0" height="136.0" class="st" />
<polygon points="242.8,506.0 342.0,568.0 342.0,572.0 242.8,510.0" class="st"/>
<rect x="227.6" y="493.2" width="4.8" height="6.4" class="" fill="#6B7280"/>
<rect x="220.4" y="499.6" width="19.2" height="30.4" class="ac" />
<text x="230.0" y="515.6" font-size="10" font-weight="bold" fill="#78350F" text-anchor="middle">S2</text>
<polygon points="154.0,493.2 237.2,493.2 237.2,468.4 234.8,466.0 154.0,466.0" class="mv"/>
<polygon points="298.0,493.2 306.0,493.2 306.0,466.0 300.4,466.0 298.0,468.4" class="mv"/>
<line x1="102.0" y1="465.4" x2="311.6" y2="465.4" stroke="#0EA5E9" stroke-width="1.4"/>
<rect x="159.6" y="394.0" width="60.8" height="71.2" class="" fill="#EEF2FF"/>
<rect x="156.4" y="394.0" width="3.2" height="71.2" class="mv" />
<rect x="220.4" y="394.0" width="3.2" height="71.2" class="mv" />
<use xlink:href="#vss" transform="translate(190.0,453.2)"/>
<text x="184.0" y="457.2" font-size="11" font-weight="bold" fill="#374151" text-anchor="middle" transform="">1</text>
<use xlink:href="#vss" transform="translate(190.0,427.6)"/>
<text x="184.0" y="431.6" font-size="11" font-weight="bold" fill="#374151" text-anchor="middle" transform="">2</text>
<use xlink:href="#vss" transform="translate(190.0,402.0)"/>
<text x="184.0" y="406.0" font-size="11" font-weight="bold" fill="#374151" text-anchor="middle" transform="">3</text>
</g>
<text x="54" y="556" class="s">The turret has put column k in front. The disc is at</text>
<text x="54" y="571" class="s">REST: its top is flush under column k, so the bottom</text>
<text x="54" y="586" class="s">vial (#1) sits on continuous floor. Pocket is empty.</text>
<rect x="445" y="90" width="390" height="512" rx="8" fill="none" stroke="#D1D5DB" stroke-width="1.2"/>
<circle cx="469" cy="109" r="11" fill="#374151"/><text x="469" y="113.5" font-size="13" font-weight="bold" fill="#FFFFFF" text-anchor="middle">1</text>
<text x="487" y="114" class="vl">LOAD ≈160° — VIAL DROPS IN</text>
<g clip-path="url(#ct1)">
<circle cx="640.0" cy="98.0" r="160.0" fill="#EFF6FF" stroke="#1D4ED8" stroke-width="1.4"/>
<rect x="445" y="358.0" width="390" height="10.0" class="st"/>
<rect x="580.0" y="368.0" width="120.0" height="80.0" class="st"/>
<circle cx="640.0" cy="258.0" r="95.0" fill="#DBEAFE" stroke="#1D4ED8" stroke-width="1.4"/>
<g transform="rotate(160,640.0,258.0)"><rect x="621.0" y="169.0" width="38.0" height="78.0" fill="none" stroke="#374151" stroke-width="1" stroke-dasharray="4,3"/></g>
<path d="M635.0,338.0 V358.0 M679.0,338.0 V358.0" stroke="#374151" stroke-width="1" stroke-dasharray="4,3"/>
<g transform="rotate(0,640.0,258.0)"><rect x="618.0" y="166.0" width="44.0" height="84.0" fill="#F3F4F6" stroke="#1E3A8A" stroke-width="0.8"/><rect x="621.0" y="169.0" width="38.0" height="78.0" fill="#E5E7EB" stroke="#1E3A8A" stroke-width="1.6"/>
</g>
<g transform="rotate(45,640.0,98.0)"><rect x="618.0" y="166.0" width="44.0" height="84.0" fill="#EEF2FF" stroke="#DC2626" stroke-width="1.3"/><rect x="624.0" y="173.0" width="32.0" height="70.0" rx="3" fill="#FFFFFF" stroke="#6B7280" stroke-width="1.1"/><rect x="624.0" y="231.0" width="32.0" height="12.0" rx="2" fill="#FCA5A5" stroke="#6B7280" stroke-width="1"/></g>
<g transform="rotate(-45,640.0,98.0)"><rect x="618.0" y="166.0" width="44.0" height="84.0" fill="#EEF2FF" stroke="#DC2626" stroke-width="1.3"/><rect x="624.0" y="173.0" width="32.0" height="70.0" rx="3" fill="#FFFFFF" stroke="#6B7280" stroke-width="1.1"/><rect x="624.0" y="231.0" width="32.0" height="12.0" rx="2" fill="#FCA5A5" stroke="#6B7280" stroke-width="1"/></g>
<g transform="rotate(0,640.0,98.0)"><rect x="618.0" y="166.0" width="44.0" height="84.0" fill="#EEF2FF" stroke="#DC2626" stroke-width="2.2"/><rect x="624.0" y="173.0" width="32.0" height="70.0" rx="3" fill="#FFFFFF" stroke="#6B7280" stroke-width="1.1"/><rect x="624.0" y="231.0" width="32.0" height="12.0" rx="2" fill="#FCA5A5" stroke="#6B7280" stroke-width="1"/></g>
<rect x="621.0" y="169.0" width="38.0" height="78.0" fill="none" stroke="#1D4ED8" stroke-width="1.8" stroke-dasharray="5,3"/>
</g>
<text x="640.0" y="158.0" class="xsb" text-anchor="middle">col k</text>
<text x="459" y="381.0" class="xs">front wall</text>
<text x="704.0" y="382.0" class="xs">shared tray (front)</text>
<path d="M692.0,348.1 A104.0,104.0 0 0 0 743.6,267.1" fill="none" stroke="#1D4ED8" stroke-width="2.2" marker-end="url(#arrB)"/>
<text x="747" y="300" class="xsb">disc turns</text><text x="747" y="313" class="xs">≈160° (0.27 s)</text>
<text x="459" y="300" class="xsb">pocket under</text><text x="459" y="313" class="xs">column k (dashed):</text><text x="459" y="326" class="xs">vial drops in, 59 ms</text>
<line x1="545" y1="310" x2="621.0" y2="230.0" class="ld" marker-end="url(#dot)"/>
<text x="459" y="414" class="xsb">SIDE SECTION</text>
<text x="459" y="428" class="xs">front →</text>
<g clip-path="url(#cs1)">
<rect x="507.0" y="466.0" width="51.5" height="4.8" class="st" />
<rect x="555.0" y="470.8" width="3.5" height="27.2" class="st" />
<rect x="555.0" y="493.2" width="75.2" height="4.8" class="st" />
<rect x="639.8" y="493.2" width="4.8" height="4.8" class="st" />
<rect x="700.6" y="493.2" width="16.0" height="4.8" class="st" />
<rect x="711.5" y="466.0" width="5.1" height="27.2" class="st" />
<rect x="724.6" y="394.0" width="8.0" height="136.0" class="st" />
<polygon points="647.8,506.0 747.0,568.0 747.0,572.0 647.8,510.0" class="st"/>
<rect x="632.6" y="493.2" width="4.8" height="6.4" class="" fill="#6B7280"/>
<rect x="625.4" y="499.6" width="19.2" height="30.4" class="ac" />
<text x="635.0" y="515.6" font-size="10" font-weight="bold" fill="#78350F" text-anchor="middle">S2</text>
<polygon points="559.0,493.2 563.8,493.2 563.8,468.4 561.4,466.0 559.0,466.0" class="mv"/>
<polygon points="626.2,493.2 711.0,493.2 711.0,466.0 628.6,466.0 626.2,468.4" class="mv"/>
<line x1="507.0" y1="465.4" x2="716.6" y2="465.4" stroke="#0EA5E9" stroke-width="1.4"/>
<rect x="564.6" y="394.0" width="60.8" height="71.2" class="" fill="#EEF2FF"/>
<rect x="561.4" y="394.0" width="3.2" height="71.2" class="mv" />
<rect x="625.4" y="394.0" width="3.2" height="71.2" class="mv" />
<use xlink:href="#vss" transform="translate(595.0,480.4)"/>
<text x="589.0" y="484.4" font-size="11" font-weight="bold" fill="#374151" text-anchor="middle" transform="">1</text>
<use xlink:href="#vss" transform="translate(595.0,454.8)"/>
<text x="589.0" y="458.8" font-size="11" font-weight="bold" fill="#374151" text-anchor="middle" transform="">2</text>
<use xlink:href="#vss" transform="translate(595.0,429.2)"/>
<text x="589.0" y="433.2" font-size="11" font-weight="bold" fill="#374151" text-anchor="middle" transform="">3</text>
<use xlink:href="#vss" transform="translate(595.0,403.6)"/>
<text x="589.0" y="407.6" font-size="11" font-weight="bold" fill="#374151" text-anchor="middle" transform="">4</text>
</g>
<line x1="549.0" y1="434.0" x2="549.0" y2="475.6" stroke="#1D4ED8" stroke-width="2" marker-end="url(#arrB)"/>
<text x="459" y="556" class="s">The disc swings ≈160° so the pocket is under column k;</text>
<text x="459" y="571" class="s">the bottom vial (#1) drops 17 mm into it (59 ms). No</text>
<text x="459" y="586" class="s">mass change yet: it is still on the weighed module.</text>
<rect x="850" y="90" width="390" height="512" rx="8" fill="none" stroke="#D1D5DB" stroke-width="1.2"/>
<circle cx="874" cy="109" r="11" fill="#374151"/><text x="874" y="113.5" font-size="13" font-weight="bold" fill="#FFFFFF" text-anchor="middle">2</text>
<text x="892" y="114" class="vl">BACK TO REST — VIAL OUT</text>
<g clip-path="url(#ct2)">
<circle cx="1045.0" cy="98.0" r="160.0" fill="#EFF6FF" stroke="#1D4ED8" stroke-width="1.4"/>
<rect x="850" y="358.0" width="390" height="10.0" class="st"/>
<rect x="985.0" y="368.0" width="120.0" height="80.0" class="st"/>
<circle cx="1045.0" cy="258.0" r="95.0" fill="#DBEAFE" stroke="#1D4ED8" stroke-width="1.4"/>
<g transform="rotate(160,1045.0,258.0)"><rect x="1026.0" y="169.0" width="38.0" height="78.0" fill="none" stroke="#374151" stroke-width="1" stroke-dasharray="4,3"/></g>
<path d="M1040.0,338.0 V358.0 M1084.0,338.0 V358.0" stroke="#374151" stroke-width="1" stroke-dasharray="4,3"/>
<g transform="rotate(160,1045.0,258.0)"><rect x="1023.0" y="166.0" width="44.0" height="84.0" fill="#F3F4F6" stroke="#1E3A8A" stroke-width="0.8"/><rect x="1026.0" y="169.0" width="38.0" height="78.0" fill="#E5E7EB" stroke="#1E3A8A" stroke-width="1.6"/>
<rect x="1029.0" y="173.0" width="32.0" height="70.0" rx="3" fill="#FFFFFF" stroke="#6B7280" stroke-width="1.2"/><rect x="1029.0" y="231.0" width="32.0" height="12.0" rx="2" fill="#FCA5A5" stroke="#6B7280" stroke-width="1"/>
</g>
<g transform="rotate(45,1045.0,98.0)"><rect x="1023.0" y="166.0" width="44.0" height="84.0" fill="#EEF2FF" stroke="#DC2626" stroke-width="1.3"/><rect x="1029.0" y="173.0" width="32.0" height="70.0" rx="3" fill="#FFFFFF" stroke="#6B7280" stroke-width="1.1"/><rect x="1029.0" y="231.0" width="32.0" height="12.0" rx="2" fill="#FCA5A5" stroke="#6B7280" stroke-width="1"/></g>
<g transform="rotate(-45,1045.0,98.0)"><rect x="1023.0" y="166.0" width="44.0" height="84.0" fill="#EEF2FF" stroke="#DC2626" stroke-width="1.3"/><rect x="1029.0" y="173.0" width="32.0" height="70.0" rx="3" fill="#FFFFFF" stroke="#6B7280" stroke-width="1.1"/><rect x="1029.0" y="231.0" width="32.0" height="12.0" rx="2" fill="#FCA5A5" stroke="#6B7280" stroke-width="1"/></g>
<g transform="rotate(0,1045.0,98.0)"><rect x="1023.0" y="166.0" width="44.0" height="84.0" fill="#EEF2FF" stroke="#DC2626" stroke-width="2.2"/><rect x="1029.0" y="173.0" width="32.0" height="70.0" rx="3" fill="#FFFFFF" stroke="#6B7280" stroke-width="1.1"/><rect x="1029.0" y="231.0" width="32.0" height="12.0" rx="2" fill="#FCA5A5" stroke="#6B7280" stroke-width="1"/></g>
</g>
<text x="1045.0" y="158.0" class="xsb" text-anchor="middle">col k</text>
<text x="864" y="381.0" class="xs">front wall</text>
<text x="1109.0" y="382.0" class="xs">shared tray (front)</text>
<path d="M1148.6,267.1 A104.0,104.0 0 0 1 1097.0,348.1" fill="none" stroke="#1D4ED8" stroke-width="2.2" marker-end="url(#arrB)"/>
<line x1="1062.0" y1="346.0" x2="1062.0" y2="390.0" stroke="#1D4ED8" stroke-width="2.4" marker-end="url(#arrB)"/>
<text x="1152" y="300" class="xsb">vial falls</text><text x="1152" y="313" class="xs">through the exit</text><text x="1152" y="326" class="xs">hole → chute</text><text x="1152" y="339" class="xs">→ tray</text>
<text x="864" y="300" class="xsb">next layer (#2)</text><text x="864" y="313" class="xs">now rests on the</text><text x="864" y="326" class="xs">flush disc top</text>
<line x1="946" y1="309" x2="1013.0" y2="246.0" class="ld" marker-end="url(#dot)"/>
<text x="864" y="414" class="xsb">SIDE SECTION</text>
<text x="864" y="428" class="xs">front →</text>
<g clip-path="url(#cs2)">
<rect x="912.0" y="466.0" width="51.5" height="4.8" class="st" />
<rect x="960.0" y="470.8" width="3.5" height="27.2" class="st" />
<rect x="960.0" y="493.2" width="75.2" height="4.8" class="st" />
<rect x="1044.8" y="493.2" width="4.8" height="4.8" class="st" />
<rect x="1105.6" y="493.2" width="16.0" height="4.8" class="st" />
<rect x="1116.5" y="466.0" width="5.1" height="27.2" class="st" />
<rect x="1129.6" y="394.0" width="8.0" height="136.0" class="st" />
<polygon points="1052.8,506.0 1152.0,568.0 1152.0,572.0 1052.8,510.0" class="st"/>
<rect x="1037.6" y="493.2" width="4.8" height="6.4" class="" fill="#6B7280"/>
<rect x="1030.4" y="499.6" width="19.2" height="30.4" class="ac" />
<text x="1040.0" y="515.6" font-size="10" font-weight="bold" fill="#78350F" text-anchor="middle">S2</text>
<polygon points="964.0,493.2 1047.2,493.2 1047.2,468.4 1044.8,466.0 964.0,466.0" class="mv"/>
<polygon points="1108.0,493.2 1116.0,493.2 1116.0,466.0 1110.4,466.0 1108.0,468.4" class="mv"/>
<line x1="912.0" y1="465.4" x2="1121.6" y2="465.4" stroke="#0EA5E9" stroke-width="1.4"/>
<rect x="969.6" y="394.0" width="60.8" height="71.2" class="" fill="#EEF2FF"/>
<rect x="966.4" y="394.0" width="3.2" height="71.2" class="mv" />
<rect x="1030.4" y="394.0" width="3.2" height="71.2" class="mv" />
<use xlink:href="#vss" transform="translate(1000.0,453.2)"/>
<text x="994.0" y="457.2" font-size="11" font-weight="bold" fill="#374151" text-anchor="middle" transform="">2</text>
<use xlink:href="#vss" transform="translate(1000.0,427.6)"/>
<text x="994.0" y="431.6" font-size="11" font-weight="bold" fill="#374151" text-anchor="middle" transform="">3</text>
<use xlink:href="#vss" transform="translate(1000.0,402.0)"/>
<text x="994.0" y="406.0" font-size="11" font-weight="bold" fill="#374151" text-anchor="middle" transform="">4</text>
<use xlink:href="#vss" transform="translate(1082.4,514.0) rotate(18)"/>
<text x="1076.4" y="518.0" font-size="11" font-weight="bold" fill="#374151" text-anchor="middle" transform="rotate(18,1082.4,514.0)">1</text>
<line x1="1077.6" y1="469.2" x2="1077.6" y2="490.0" stroke="#1D4ED8" stroke-width="2" marker-end="url(#arrB)"/>
</g>
<text x="864" y="556" class="s">The disc returns to REST (0.27 s) and the vial falls</text>
<text x="864" y="571" class="s">through the exit hole to the fixed chute and the</text>
<text x="864" y="586" class="s">shared tray. Then S2 and S1 power off.</text>
<rect x="1260" y="90" width="300" height="512" rx="8" fill="#FFFFFF" stroke="#D1D5DB" stroke-width="1.2"/>
<text x="1274" y="114" class="vl">WHY A FLUSH DISC</text>
<text x="1274" y="130" class="xs">column crossing the front position (end view)</text>
<text x="1274" y="156" class="sb">v2.0 drop slot + drum</text>
<circle cx="1532" cy="152" r="12" fill="#DC2626"/><path d="M1526,146 L1538,158 M1538,146 L1526,158" stroke="#FFFFFF" stroke-width="2.6" stroke-linecap="round"/>
<rect x="1274" y="300" width="88.5" height="15" class="st"/>
<rect x="1457.5" y="300" width="88.5" height="15" class="st"/>
<path d="M1362.5,315 L1362.5,322 A120,120 0 0 1 1457.5,322 L1457.5,315" fill="#BFDBFE" stroke="#1D4ED8" stroke-width="1.4"/>
<path d="M1362.5,330 A120,120 0 0 1 1457.5,330" fill="none" stroke="#1D4ED8" stroke-width="0" />
<rect x="1355" y="190" width="10" height="108" class="mv"/><rect x="1455" y="190" width="10" height="108" class="mv"/>
<use xlink:href="#vend" x="1410" y="278.5"/>
<line x1="1470" y1="300" x2="1492" y2="300" stroke="#DC2626" stroke-width="1"/><line x1="1446" y1="318.5" x2="1492" y2="318.5" stroke="#DC2626" stroke-width="1"/>
<line x1="1486" y1="288" x2="1486" y2="300" stroke="#DC2626" stroke-width="1.2" marker-end="url(#rE)"/><line x1="1486" y1="331" x2="1486" y2="318.5" stroke="#DC2626" stroke-width="1.2" marker-end="url(#rE)"/>
<text x="1496" y="314" font-size="12" font-weight="bold" fill="#DC2626">3.7 mm</text>
<path d="M1428,316 Q1460,306 1466,276" fill="none" stroke="#DC2626" stroke-width="2" marker-end="url(#arrR)"/>
<line x1="1276" y1="200" x2="1336" y2="200" stroke="#1D4ED8" stroke-width="2" marker-end="url(#arrB)"/>
<text x="1276" y="214" class="xs">turret move</text>
<text x="1274" y="350" font-size="12" fill="#B91C1C">vial dips 3.7 mm → +45 mN·m</text>
<text x="1274" y="365" font-size="12" fill="#B91C1C">to climb out (near stall): rejected</text>
<line x1="1274" y1="386" x2="1546" y2="386" stroke="#E5E7EB" stroke-width="1"/>
<text x="1274" y="410" class="sb">v2.1 flush dosing disc</text>
<circle cx="1532" cy="406" r="12" fill="#15803D"/><path d="M1525,406 L1530,412 L1540,400" fill="none" stroke="#FFFFFF" stroke-width="2.6" stroke-linecap="round" stroke-linejoin="round"/>
<rect x="1274" y="540" width="56" height="15" class="st"/>
<rect x="1331" y="540" width="158" height="22" class="mv"/>
<rect x="1490" y="540" width="56" height="15" class="st"/>
<path d="M1331,562 l6,4 l6,-4 M1477,562 l6,4 l6,-4" fill="none" stroke="#1D4ED8" stroke-width="1"/>
<line x1="1274" y1="539.4" x2="1546" y2="539.4" stroke="#0EA5E9" stroke-width="1.8"/>
<rect x="1355" y="430" width="10" height="108" class="mv"/><rect x="1455" y="430" width="10" height="108" class="mv"/>
<use xlink:href="#vend" x="1410" y="500"/>
<line x1="1276" y1="440" x2="1336" y2="440" stroke="#1D4ED8" stroke-width="2" marker-end="url(#arrB)"/>
<text x="1276" y="454" class="xs">turret move</text>
<path d="M1454,532 L1490,532" stroke="#15803D" stroke-width="2" marker-end="url(#arrGr)"/>
<text x="1274" y="580" font-size="12" fill="#166534">disc top flush (0.3 mm gap): no dip, no climb</text>
<text x="1274" y="595" font-size="12" fill="#166534">→ the vial just slides across</text>
<text x="40" y="634" class="vl">WEIGHED-MODULE MASS vs TIME</text>
<text x="290" y="634" class="s">(example: column 6, midazolam, 12 g vials; HX711 at 10 samples/s; time not to scale; columns line up with frames 0–2)</text>
<path d="M437.5,648 V884 M842.5,648 V884" stroke="#D1D5DB" stroke-width="1" stroke-dasharray="2,3"/>
<rect x="100" y="652" width="120" height="226" fill="#E0E7FF" fill-opacity="0.75"/>
<rect x="920" y="652" width="160" height="226" fill="url(#hatch)"/>
<rect x="1080" y="652" width="150" height="226" fill="#E0E7FF" fill-opacity="0.75"/>
<rect x="905" y="765.6" width="325" height="16.8" fill="#DCFCE7"/>
<rect x="905" y="841.2" width="325" height="33.6" fill="#FEE2E2" fill-opacity="0.6"/>
<line x1="80" y1="690.0" x2="905" y2="690.0" class="ref"/><line x1="905" y1="690.0" x2="1230" y2="690.0" class="rref"/>
<line x1="202" y1="732.0" x2="905" y2="732.0" class="ref"/><line x1="905" y1="732.0" x2="1230" y2="732.0" class="rref"/>
<line x1="202" y1="753.0" x2="905" y2="753.0" class="ref"/><line x1="905" y1="753.0" x2="1230" y2="753.0" class="rref"/>
<line x1="202" y1="795.0" x2="905" y2="795.0" class="ref"/><line x1="905" y1="795.0" x2="1230" y2="795.0" class="rref"/>
<line x1="202" y1="858.0" x2="905" y2="858.0" class="ref"/><line x1="905" y1="858.0" x2="1230" y2="858.0" class="rref"/>
<line x1="202" y1="774.0" x2="1230" y2="774.0" class="ref"/>
<line x1="80" y1="652" x2="80" y2="884" stroke="#374151" stroke-width="1.2"/>
<line x1="80" y1="884" x2="1246" y2="884" stroke="#374151" stroke-width="1.2" marker-end="url(#arrK)"/>
<text x="1240" y="876" class="s" text-anchor="end">time</text>
<text transform="translate(64,768) rotate(-90)" class="s" text-anchor="middle">mass on load cell (g)</text>
<path d="M80,689.3 L83,690.4 L86,690.3 L89,690 L92,689.4 L95,690.6 L98,690.6 L101,690 L104,690 L107,689.5 L110,689 L113,689.7 L116,690.2 L119,689.1 L122,690.6 L125,689.5 L128,689.5 L131,689.1 L134,691 L137,690.5 L140,690.8 L143,690.2 L146,689.1 L149,689.7 L152,690 L155,689.2 L158,690.9 L161,689.7 L164,689.3 L167,690.6 L170,689.2 L173,690.9 L176,689.9 L179,690.1 L182,689.7 L185,690 L188,689.4 L191,689.1 L194,690.7 L197,689.5 L200,690.6 L203,689.4 L206,690.9 L209,690.8 L212,690.5 L215,690.5 L218,690.2 L221,690.5 L224,689.2 L227,690 L230,690.7 L233,689.4 L236,690.7 L239,695.3 L242,697.5 L245,697.4 L248,694.6 L251,689.8 L254,686.1 L257,682.2 L260,681.6 L263,684.6 L266,690.3 L269,695.5 L272,697.6 L275,697.6 L278,694.8 L281,690.4 L284,684.9 L287,682.6 L290,682.5 L293,685.5 L296,689.5 L299,694.2 L302,697.4 L305,698.3 L308,694.5 L311,690.2 L314,685 L317,681.8 L320,681.7 L323,685.8 L326,690.4 L329,694.5 L332,697.9 L335,697.9 L338,695.3 L341,690.7 L344,685.1 L347,683.2 L350,683.1 L353,685.4 L356,690.6 L359,694.7 L362,697.4 L365,697.2 L368,695.3 L371,689.5 L374,684.6 L377,682.9 L380,682.8 L383,685.6 L386,690.5 L389,692.9 L392,694.9 L395,694.4 L398,692.5 L401,689.5 L404,687.4 L407,687.3 L410,688.7 L413,690 L416,690.4 L419,690.1 L422,689.6 L425,690.8 L428,690 L431,690.4 L434,689.2 L437,689.5 L440,690.6 L443,690.5 L446,690.7 L449,690.2 L452,689.9 L455,690.1 L458,690.6 L461,690.8 L464,693.8 L467,694.1 L470,693.4 L473,689.2 L476,687.3 L479,686.3 L482,685.5 L485,689.1 L488,692.3 L491,694.8 L494,694.3 L497,691.7 L500,688.8 L503,687 L506,686.2 L509,686.4 L512,689.4 L515,692.3 L518,693.7 L521,693.6 L524,690.5 L527,688.5 L530,686 L533,685.2 L536,688 L539,690.8 L542,693.7 L545,694 L548,692.4 L551,689.5 L554,686.8 L557,685.9 L560,690.1 L563,689.3 L566,690.3 L569,690.6 L572,690.4 L575,690.5 L578,689.2 L581,689.9 L584,689.3 L587,690.4 L590,689.5 L593,690.3 L596,689.6 L599,690.3 L600,689.7 L601,673.2 L602,675.4 L603,676.8 L604,679.1 L605,679.3 L606,680.8 L609,683.5 L612,686 L615,686 L618,687.7 L621,688.3 L624,689.1 L627,689.9 L630,689.1 L633,689.9 L636,689.7 L639,689.9 L642,689.1 L645,690.4 L648,690.7 L651,689.7 L654,689.7 L657,690.8 L660,689.3 L663,689.3 L666,689.3 L669,690.5 L672,690.4 L675,689.9 L678,690.2 L681,689.2 L684,690.2 L687,689.9 L690,690 L693,689.8 L696,689.8 L699,689.6 L702,689.3 L705,689.9 L708,689.6 L711,690.3 L714,690.5 L717,690.4 L720,689.9 L723,689.6 L726,689.8 L729,690 L732,690.2 L735,690.7 L738,689.3 L741,690 L744,690 L747,690.3 L750,690.6 L753,690.4 L756,690.2 L759,690.4 L762,690.3 L765,690.6 L768,690.3 L771,690.3 L774,689.6 L777,690.7 L780,689.8 L783,690.2 L786,690.5 L789,690.7 L792,690.8 L795,689.2 L798,689.7 L801,689.7 L804,689.8 L807,689.4 L810,690.1 L813,689.3 L816,689.7 L819,690.7 L822,690.4 L825,689.9 L828,689.4 L831,690.7 L834,690.3 L837,689.5 L840,689.7 L843,691.3 L846,694 L849,694.1 L852,693.7 L855,689.7 L858,686.6 L861,686.1 L864,685.7 L867,689.2 L870,691.6 L873,694.4 L876,693.9 L879,691.9 L882,689.6 L885,686.2 L888,685.4 L891,687.2 L894,689.6 L897,692.5 L900,690 L901,704 L902,718 L903,732 L904,746 L905,760 L906,781.9 L909,779.5 L912,775.2 L915,771.8 L918,768.1 L921,769 L924,771.3 L927,774.2 L930,776.2 L933,778 L936,776.9 L939,775.7 L942,773.5 L945,771.3 L948,770.6 L951,772 L954,773 L957,774.7 L960,775.8 L963,776.3 L966,775 L969,773.6 L972,773.4 L975,773 L978,772.8 L981,772.9 L984,773.9 L987,774.7 L990,775 L993,774.4 L996,774.6 L999,774.1 L1002,773.9 L1005,773.8 L1008,773 L1011,774.1 L1014,773.8 L1017,775 L1020,774.7 L1023,774.5 L1026,773.5 L1029,773.2 L1032,774 L1035,773.9 L1038,774.1 L1041,774.1 L1044,774.6 L1047,774 L1050,773.9 L1053,773.8 L1056,773.6 L1059,774 L1062,774.3 L1065,773.4 L1068,773.5 L1071,774.1 L1074,774.3 L1077,773.7 L1080,773.6 L1083,773.3 L1086,773.3 L1089,774 L1092,774.3 L1095,774.2 L1098,773.5 L1101,773.4 L1104,774.7 L1107,774.1 L1110,773.9 L1113,774.3 L1116,774.4 L1119,774 L1122,773.3 L1125,774.5 L1128,773.5 L1131,773.3 L1134,773.8 L1137,774.1 L1140,774.2 L1143,773.5 L1146,774.3 L1149,774 L1152,773.5 L1155,774.6 L1158,774.5 L1161,774.7 L1164,774.3 L1167,773.5 L1170,774.4 L1173,774.6 L1176,774.1 L1179,774.7 L1182,774.8 L1185,773.8 L1188,774.7 L1191,774.7 L1194,774.5 L1197,773.2 L1200,773.8 L1203,774.2 L1206,774.2 L1209,774.4 L1212,774.2 L1215,773.5 L1218,774.7 L1221,774.1 L1224,774.6 L1227,773.5 L1230,774.8" fill="none" stroke="#1F2937" stroke-width="2" stroke-linejoin="round"/>
<g fill="#6D28D9"><circle cx="112" cy="689.7" r="3"/><circle cx="128" cy="689.5" r="3"/><circle cx="144" cy="690.2" r="3"/><circle cx="160" cy="689.7" r="3"/><circle cx="176" cy="689.9" r="3"/><circle cx="192" cy="689.1" r="3"/><circle cx="208" cy="690.8" r="3"/><circle cx="1090" cy="774.0" r="3"/><circle cx="1111" cy="773.9" r="3"/><circle cx="1132" cy="773.3" r="3"/><circle cx="1153" cy="773.5" r="3"/><circle cx="1174" cy="774.6" r="3"/><circle cx="1195" cy="774.5" r="3"/><circle cx="1216" cy="773.5" r="3"/></g>
<text x="86" y="681" class="s">m0</text>
<text x="104" y="668" class="sb">pre = median of 7 (before the move)</text>
<text x="196" y="736.0" font-size="12" fill="#B91C1C" text-anchor="end">−6 g → MISLOAD</text>
<text x="196" y="757.0" font-size="12" fill="#B91C1C" text-anchor="end">−9 g → MISLOAD</text>
<text x="196" y="778.0" font-size="12" fill="#166534" text-anchor="end">−12 ± 1.2 g → OK</text>
<text x="196" y="799.0" font-size="12" fill="#B91C1C" text-anchor="end">−15 g → MISLOAD</text>
<text x="196" y="862.0" font-size="12" fill="#B91C1C" text-anchor="end">−24 g → DOUBLE</text>
<text x="236" y="712" class="s">turret move ≤ 1.8 s: wiggles only</text>
<text x="236" y="726" class="s">(turret + floor are both weighed)</text>
<text x="456" y="712" class="s">vial drops column → pocket:</text>
<text x="456" y="726" class="s">still on the module, no step</text>
<text x="604" y="672" class="s">59 ms fall</text>
<text x="912" y="684" font-size="12" fill="#DC2626">if jam: stays at m0</text>
<text x="912" y="708" class="sb">vial falls through the exit hole:</text>
<text x="912" y="722" class="sb">step = unit mass (12 g here)</text>
<text x="1000" y="672" class="sb" text-anchor="middle">settle 1.0 s</text>
<text x="1155" y="670" class="sb" text-anchor="middle">measure post</text>
<text x="1155" y="685" class="sb" text-anchor="middle">= median of 7</text>
<line x1="1236" y1="692" x2="1236" y2="772.0" stroke="#1F2937" stroke-width="1.4" marker-start="url(#kS)" marker-end="url(#kE)"/>
<text x="1228" y="712" class="sb" text-anchor="end">drop = 12 g</text>
<g font-size="12" text-anchor="middle">
<rect x="80" y="892" width="357.5" height="22" fill="#EEF2FF" stroke="#C7D2FE"/><text x="258.75" y="907" fill="#1F2937">0 · pre (0.7 s), then turret move ≤ 1.8 s if needed</text>
<rect x="437.5" y="892" width="405.0" height="22" fill="#EFF6FF" stroke="#BFDBFE"/><text x="640.0" y="907" fill="#1F2937">1 · disc → LOAD, vial drops in (wait 400 ms)</text>
<rect x="842.5" y="892" width="77.5" height="22" fill="#EFF6FF" stroke="#BFDBFE"/><text x="881.25" y="907" fill="#1F2937">2 · REST</text>
<rect x="920" y="892" width="160" height="22" fill="#F3F4F6" stroke="#D1D5DB"/><text x="1000.0" y="907" fill="#1F2937">settle 1.0 s</text>
<rect x="1080" y="892" width="150" height="22" fill="#EEF2FF" stroke="#C7D2FE"/><text x="1155.0" y="907" fill="#1F2937">post (0.7 s)</text>
</g>
<path d="M236,920 V926 H437.5 V920" fill="none" stroke="#6B7280" stroke-width="1"/>
<text x="337" y="942" class="s" text-anchor="middle">turret move (skipped if column k is in front)</text>
<path d="M437.5,920 V926 H920 V920" fill="none" stroke="#6B7280" stroke-width="1"/>
<text x="679" y="942" class="s" text-anchor="middle">disc cycle 0.8 s (frames 1–2); S1 stays powered until REST</text>
<path d="M80,954 V960 H1230 V954" fill="none" stroke="#374151" stroke-width="1.2"/>
<text x="655" y="978" class="tb" text-anchor="middle">DISPENSE k: ≈3.2 s if the column is in front; ≤ 5 s worst</text>
<rect x="1260" y="640" width="300" height="314" rx="8" fill="#FFFFFF" stroke="#9CA3AF" stroke-width="1.2"/>
<text x="1276" y="664" class="vl">HOST VERDICT</text>
<text x="1276" y="680" class="xs">d = pre − post;  u = column k’s unit mass</text>
<line x1="1278" y1="716" x2="1542.0" y2="716" stroke="#374151" stroke-width="1"/>
<line x1="1278.0" y1="716" x2="1278.0" y2="720" stroke="#374151" stroke-width="1"/>
<line x1="1366.0" y1="716" x2="1366.0" y2="720" stroke="#374151" stroke-width="1"/>
<line x1="1454.0" y1="716" x2="1454.0" y2="720" stroke="#374151" stroke-width="1"/>
<line x1="1542.0" y1="716" x2="1542.0" y2="720" stroke="#374151" stroke-width="1"/>
<text x="1278" y="731" class="xs" text-anchor="middle">0</text><text x="1542.0" y="731" class="xs" text-anchor="middle">30 g</text>
<rect x="1320.2" y="704" width="21.1" height="12" fill="#E5E7EB" stroke="#6B7280" stroke-width="1"/>
<text x="1330.8" y="731" font-size="11" font-weight="bold" fill="#374151" text-anchor="middle">6</text>
<rect x="1346.6" y="704" width="21.1" height="12" fill="#FEE2E2" stroke="#DC2626" stroke-width="1"/>
<text x="1357.2" y="731" font-size="11" font-weight="bold" fill="#374151" text-anchor="middle">9</text>
<rect x="1373.0" y="704" width="21.1" height="12" fill="#DCFCE7" stroke="#15803D" stroke-width="1"/>
<text x="1383.6" y="731" font-size="11" font-weight="bold" fill="#374151" text-anchor="middle">12</text>
<rect x="1399.4" y="704" width="21.1" height="12" fill="#FEE2E2" stroke="#DC2626" stroke-width="1"/>
<text x="1410.0" y="731" font-size="11" font-weight="bold" fill="#374151" text-anchor="middle">15</text>
<rect x="1468.1" y="704" width="42.2" height="12" fill="none" stroke="#DC2626" stroke-width="1" stroke-dasharray="3,2"/>
<text x="1489.2" y="731" font-size="11" fill="#B91C1C" text-anchor="middle">2u</text>
<text x="1276" y="750" class="xs">bands ±1.2 g (disjoint): 4.8–7.2 · 7.8–10.2 ·</text>
<text x="1276" y="764" class="xs">10.8–13.2 · 13.8–16.2 g   (green = u here, 12 g)</text>
<text x="1276" y="788" class="xsb">checked in this ORDER:</text>
<text x="1276" y="812" class="xsb">1</text>
<rect x="1288" y="800" width="70" height="17" rx="8.5" fill="#DCFCE7" stroke="#15803D"/>
<text x="1323" y="812" font-size="11" font-weight="bold" fill="#166534" text-anchor="middle">OK</text>
<text x="1366" y="812" font-size="12" fill="#1F2937">d = u ± 1.2 g → log</text>
<text x="1276" y="834" class="xsb">2</text>
<rect x="1288" y="822" width="70" height="17" rx="8.5" fill="#FEE2E2" stroke="#DC2626"/>
<text x="1323" y="834" font-size="11" font-weight="bold" fill="#B91C1C" text-anchor="middle">DOUBLE</text>
<text x="1366" y="834" font-size="12" fill="#1F2937">d = 2u ± 2.4 g</text>
<text x="1276" y="856" class="xsb">3</text>
<rect x="1288" y="844" width="70" height="17" rx="8.5" fill="#FEE2E2" stroke="#DC2626"/>
<text x="1323" y="856" font-size="11" font-weight="bold" fill="#B91C1C" text-anchor="middle">JAM</text>
<text x="1366" y="856" font-size="12" fill="#1F2937">d &lt; 1.2 g</text>
<text x="1276" y="878" class="xsb">4</text>
<rect x="1288" y="866" width="70" height="17" rx="8.5" fill="#FEE2E2" stroke="#DC2626"/>
<text x="1323" y="878" font-size="11" font-weight="bold" fill="#B91C1C" text-anchor="middle">MISLOAD</text>
<text x="1366" y="878" font-size="12" fill="#1F2937">d = another drug ± 1.2 g</text>
<text x="1276" y="900" class="xsb">5</text>
<rect x="1288" y="888" width="70" height="17" rx="8.5" fill="#FEE2E2" stroke="#DC2626"/>
<text x="1323" y="900" font-size="11" font-weight="bold" fill="#B91C1C" text-anchor="middle">FAULT</text>
<text x="1366" y="900" font-size="12" fill="#1F2937">anything else</text>
<text x="1276" y="926" class="xs">2–5 → DISPENSE_FAULT + alarm. DOUBLE comes</text>
<text x="1276" y="939" class="xs">first, so a regular double (12 g) is not MISLOAD.</text>
<text x="40" y="1010" class="t">Device reports raw counts only (reply: OK col=k pre=&lt;raw&gt; post=&lt;raw&gt;); the host converts to grams, knows each</text>
<text x="40" y="1028" class="t">column’s drug and unit mass (regular 6 g; CS 9 / 12 / 15 g) and judges. Calibration lives on the host.</text>
<rect x="40" y="1044" width="22" height="14" class="st"/>
<text x="70" y="1056" class="s">fixed parts (plate, wall, tray)</text>
<rect x="300" y="1044" width="22" height="14" class="mv"/>
<text x="330" y="1056" class="s">moving (disc, turret columns)</text>
<circle cx="571" cy="1051" r="8" fill="#DBEAFE" stroke="#1D4ED8" stroke-width="1.2"/>
<text x="590" y="1056" class="s">dosing disc (top view)</text>
<rect x="820" y="1044" width="22" height="14" fill="#EEF2FF" stroke="#DC2626" stroke-width="1.6"/>
<text x="850" y="1056" class="s">CS column (red outline)</text>
<rect x="44" y="1066" width="14" height="18" fill="#E5E7EB" stroke="#1E3A8A" stroke-width="1.6"/>
<text x="70" y="1080" class="s">pocket (through-hole)</text>
<rect x="300" y="1068" width="22" height="14" fill="none" stroke="#374151" stroke-width="1" stroke-dasharray="4,3"/>
<text x="330" y="1080" class="s">hidden: exit hole / chute below</text>
<line x1="560" y1="1075" x2="580" y2="1075" stroke="#1D4ED8" stroke-width="2" marker-end="url(#arrB)"/>
<text x="590" y="1080" class="s">motion</text>
<circle cx="828" cy="1075" r="3" fill="#6D28D9"/>
<text x="850" y="1080" class="s">HX711 sample</text>
<text x="40" y="1104" class="s">Frames and time axis not to scale. Disc start pulses: REST 600 µs, LOAD 2380 µs (≈160°, calibrated on the host). S1, S2: MG90S.</text>
<text x="1560" y="1118" font-size="11" fill="#9CA3AF" text-anchor="end">Smart Med Station · Hardware design v2.1 · 2026-10-07</text>
</svg>
